<?xml version="1.0" encoding="utf-8"?>
<!-- Generator: Adobe Illustrator 17.0.0, SVG Export Plug-In . SVG Version: 6.00 Build 0)  -->
<!DOCTYPE svg PUBLIC "-//W3C//DTD SVG 1.1//EN" "http://www.w3.org/Graphics/SVG/1.1/DTD/svg11.dtd">
<svg version="1.1" id="Layer_1" xmlns="http://www.w3.org/2000/svg" xmlns:xlink="http://www.w3.org/1999/xlink" x="0px" y="0px"
	 width="439.1px" height="157.1px" viewBox="0 0 439.1 157.1" style="enable-background:new 0 0 439.1 157.1;" xml:space="preserve"
	>
<g>
	<path style="fill:#0E0E56;" d="M226.1,47.9c-2.3-0.5-4.6-1-6.9-1.6c-8.7-0.8-17.2,1.2-25.9,1.1c-0.2,0-0.5,0-0.7,0.1
		c-3.3,1.2-6.6,1.8-10.1,1.8c-0.6-0.2-1.5,0.2-1.8-0.6c-0.2-0.7,0.6-1.1,1-1.6c1.1-1,2.5-1.9,4-1.8c2.6,0.2,4.6-0.5,6-2.9
		c-2.9-0.5-5.6-0.5-8.2,1c-2.2,1.3-4.6,1.1-6.8,0.5c-2.5-0.8-4.8-1-7.2,0.1c-0.7,0.3-1.5,0.3-2.1-0.2c-2.1-1.6-4.7-1-7.1-1.5
		c-0.8-0.2-1.3,0.4-1.9,0.9c-1.3,1.1-2.6,2.3-4.5,2.2c-1-2.8-1.2-5.7-1.7-8.5c-2.5-1.3-5.2-0.5-7.8-0.6c-0.9-0.6-1.2-1.6-1.6-2.4
		c1.6,0,3.6,1.2,4.6,0.2c1.4-1.5,3.1-1.5,4.7-2.2c1.4-0.7,2.4-0.3,2.9,0.9c0.7,1.8,2.5,2.7,3.1,4.5c0.1,0.4,0.4,0.7,0.9,0.7
		c1.9-0.2,3.4-2.9,2.6-4.9c-0.4-1-0.4-1.9,0.3-2.8c0.6-0.7,1.3-1,2.2-0.9c0.8,0.1,1.5,0.9,1,1.3c-1.5,1.2-0.6,2.7-0.8,4.1
		c-0.6,2,1.4,2.8,1.8,4.2c1.1,3.7,3.3,2.5,5.5,1.8c0.2-0.1,0.4-0.2,0.7-0.3c1.5-0.4,3-0.7,4.5-1.1c2.1,0.1,4.2-0.1,6.2,0.5
		c3.4,1,6.7,0.3,10-0.3c5.1-0.8,10.1-2.1,15.3-2.3c0.2,1.2,0,2.1-1.5,2.3c-0.9,0.1-1.7,0.6-2.5,1c-0.5,0.2-0.8,0.6-0.7,1.1
		c0.1,0.6,0.6,0.9,1.1,0.8c2.5-0.4,4.6,1,7,1c4.9,0,5.1-0.2,4.6-5.2c-0.1-1-0.1-1.4-1.5-1.1c-1.5,0.3-3.4,1.3-4.6-0.9
		c0.5-0.3,0.9-0.7,1.4-0.9c5.4-2.9,11.2-5.2,16.3-8.6c1.3,0.3,2.3-0.6,3.3-1.1c8.3-4.1,16.7-8.2,25-12.4c1.5-0.7,3.3-1,4.2-2.7
		c0.2-0.1,0.3-0.2,0.5-0.3c0,0,0.1,0,0.1,0l0-0.1c0-0.2,0.1-0.3,0.2-0.4c0.2,0,0.2-0.1,0.3-0.2c3.3-1.6,6.9-1.5,10.4-2.1
		c1.9-0.3,3.9,0.7,5.2,1.9c1.1,1,2.6,2.8,0.7,4.6c-0.5,0.2-0.7,0.6-0.6,1l0,0c-4-0.6-8-1.2-11.9,0.6c-5.3,2.5-10.4,5.4-15.9,7.5
		c-0.6,0.2-1.2,0.7-1.3,1.4c-0.8,0.3-1.7,0.7-2.5,1c-3.2,1.2-6.3,2.4-9,4.5c-2,1.6-4.1,3.2-6.1,4.9c-1.6,1.3-2.7,3.1-2.2,5.2
		c0.4,1.8,2.3,1.4,3.6,1.4c4.5,0,8.9,0.9,13.3,1.5c2.6,0.4,5.6,0.6,7.8,2.3c6.3,4.7,12.6,9.5,18.8,14.3l0.1-0.1c0,0-0.1,0.1-0.1,0.1
		c0.4,1.1,0.1,2.2-0.2,3.3c-0.4,1.7-2.2,1.7-2.9,2.8c-2.1,3.3-5.5,4.7-8.6,6.6c-2.4,1.5-5.5,1.5-8.1,2.6c-3.9,1.7-7.7,3.6-11.3,6.1
		c-2.8,2-6.5,3.3-9.9,4.2c-4.2,1.1-8.7,1.3-13.1,1.2c-2-0.5-5,1.4-5.6-2.4c0-0.1-0.2-0.3-0.4-0.3c-1.9-0.4-1.8-1.9-1.8-3.3
		c0.2,0,0.5,0,0.7,0.1c4.9,0.6,9.9,1.1,14-2.5c6.5-2.2,13-4.4,19.6-6.6c1.4-0.5,2.6-1,3.6-2.1c2.1-2.3,4.2-4.5,6.3-6.7
		c2.1-2.2,4.2-4.5,6.3-6.7c0.4-0.4,0.8-0.9,0.5-1.5c-0.2-0.5-0.6-0.4-1-0.4c-7.2-0.6-14.1-2.7-21.2-4
		C234.6,48.9,230.4,47.9,226.1,47.9z"/>
	<path style="fill:#18353C;" d="M84.3,80.7c-1.2-2.3-3.5-3.5-5.3-5c-1.4-1.2-1.3-1.8,0.2-2.7c1-0.6,2.2-1.1,3-2.4
		c-1.5-0.8-3-0.2-4.4-0.3c-7.6-1-13.9,1.5-19.8,6.3c-6.8,5.5-13.9,10.6-20.7,16c-1.3,1-2.7,1.6-4.1,2.3c-3,1.6-3.6,3.5-1.8,6.6
		c1.4,2.4,2.8,5,5.7,5.6c2.3,0.5,3.3,2.4,5.3,3.2c3.5,1.4,7.3,2.2,10.7,3.6c2.5,1.1,4.6,1.9,7.2,0.8c0.2-0.1,0.7,0.1,0.8,0.4
		c2.1,3.8,6.4,4.1,9.7,6.1c2.6,1.6,5.5,2.7,8.3,3.9c2.5,1.1,4.4,3.4,6.6,5.2c1.8,1.5,3.5,3,5.5,4.7c-2.9,0.5-5.5,0.2-8.1,0
		c-6.9-0.4-12.8-3.2-19-5.5c-5.5-2.1-11-4.3-16.5-6.4c0-0.6,0-1.2,0-1.8c1-0.1,2,0.1,2.9,0.4c10.3,4,20.7,8,31,12
		c0.8,0.3,1.6,0.8,2.6,0.4c-4.8-3.8-10-6.5-15-9.6c-4-2.4-7.8-5-12.2-6.7c-5.9-2.3-12-4.1-17.6-7.4c-5.1-3-10-6.2-15.1-9.1
		c0.4-1.3-0.9-3.5,1.2-3.8c2.7-0.4,3.7-2.2,4.8-4.1c0-0.4,0-0.9-0.2-1.2c-1-1.6-0.4-2,1.2-2.5c2.8-0.8,5.6-1.6,7.9-3.7
		c0.8-0.8,1.6-2,3.1-1.7c0.8-0.6,1.7-0.9,2-1.9l0,0c1.4-0.1,2.6-0.4,3-2l0,0c1.5,0.1,2.5-0.6,3-2c0.1-0.7,0.7-1.1,1.3-1.4
		c2.9-1.7,5.9-3.4,8.8-5.1c6.3-3.8,12.5-7.8,20-9c0.5-0.5,0.5-1,0-1.5l0,0c0.1-0.7,0.2-1.4,0.3-2.2c0.2-1.8-2.5-4.5-4.3-4.4
		c-1.5,0.1-2.8,0.9-4.1,1.6c-2.1,1.1-4.1,1.9-6.6,1.1c-3.9-1.2-7.6-3-11.8-3.2c-1.3-1.3-11.5-5.3-13.7-5.4c-0.3,0-0.5,0-0.8,0
		c-0.3-0.2-0.7-0.3-1-0.5c-3.7-1.4-7.4-2.8-11.1-4.3c-6-2.4-12.3-3.2-18.6-4.1c-1.3-3.3-1.1-6.7-1.4-10.1c-0.1-0.8,0.6-0.5,1.1-0.5
		c4,2.7,8.1,5.2,11.8,8.2c4.7,3.8,10.5,5.1,15.7,7.9c7.8,4.2,16.3,3.6,24.6,4.8c6.1,0.9,12.3,1.4,18.4,2c0.5,0.3,1.1,0.7,1.6,1
		c-0.6,1.9,0.6,3.1,1.8,4.2c0.8,0.7,2.2,1.3,2.1,2.3c-0.2,2.5,1.1,4.3,2.1,6.3c0.7,1.4,1,1.4,2.3,0.6c2.8-1.7,5.2-4.2,8.7-4.9
		c2.2-0.8,0.3-2.8,1.2-4c4-3.4,4.1-4,0.8-6c0.1-0.1,0.2-0.2,0.1-0.3c3.6-3.1,6.2-7.3,9.5-10.7c1.9-1.9,2.7-4,2.3-6.7
		c-0.2-1.3-0.7-2.6-1-3.8c0.1-0.1,0.1-0.3,0.1-0.4c2.3,0.3,1.6-1.3,1.7-2.5c0.1-1.1-0.1-2.2,1.1-2.8c1.3-0.6,2.1,0.4,2.9,1.2
		c1.1,2,1.7,4.3,3.7,5.6c0.2,0.4,0.3,0.8,0.1,1.2c-1.2,2.4-2.4,4.9-3.7,7.3c-0.9,1.7-1.2,3.4-0.7,5.3c1.9,6.9,3,14,4.3,21
		c0.1,1.1-0.7,2.5,1,3.1c0.7,3.2,0.1,4.5-2.4,4.9c-0.4-1.4-1.5-0.6-2.3-0.8c-0.5-0.1-1.1-0.1-1-0.8c0-0.5,0.4-0.8,0.8-0.8
		c2.7,0.1,2.5-1.6,2.4-3.5c-0.2-3.5-2.2-6.5-2.3-10.1c0-1-1-2.9-2.5-0.6c-0.4,0.7-1.2,0.4-1.8,0.6c0.8-3.3,1.8-6.5,2-10
		c0.1-1.7-1-2.7-2.1-3.4c-0.9-0.6-1.6,0.5-1.8,1.4c-1.5,3.7-3,7.3-4.6,11c-1.6,3.6-4.1,6.8-6,10.3c-2.6,4.9-5.5,9.2-11,11.2
		c-0.2,0.1-0.3,0.3-0.5,0.4c-0.9,0.3-1.8,0.4-2.4,1.1C84.9,80.4,84.6,80.5,84.3,80.7z"/>
	<path style="fill:#0E0E56;" d="M294.1,67.7c0.2,0.2,0.3,0.3,0.5,0.5c-0.1,1.6,1.1,1.1,1.9,1.1c5.3-0.2,10.5-0.2,15.7,1.2
		c-0.5,1.8,0.1,3.3,1.9,3.6c1.4,0.3,3.5,1.2,4-1.3c0.3-1.3,1-1.6,2.1-1.5c0,0,0,0,0,0c0,0.7-0.2,1.4,0,2c0.3,1,0.5-0.1,0.7-0.1
		c0.1,0.1,0.1,0.2,0.2,0.3c0.1,0.4,0.1,0.8,0.2,1.2c0.3,1.3-0.3,1.7-1.6,1.8c-4,0.4-8-0.3-12,0.9c-4,1.2-8.3,1.4-12.4,2.4
		c-1.5,0.4-3.3,0.5-4.6,1.8c-4.5,1.1-9,2.1-13.5,3.2c-0.7-0.2-1.4-0.4-2.1-0.7c1.9-3,1.3-6.5-1-8.7c-0.2-1.2,0.7-2,1-3.1
		c0.6-0.6,1.1-1.2,1.7-1.8c8.4-8.6,16.4-17.6,24.4-26.6c2.6-2.9,4.8-6.1,7.2-9.2l0.1,0l0-0.1c0.1-0.1,0.1-0.1,0.3-0.1
		c0.9-0.3,1.8-0.7,1.5-2c0-0.2,0.1-0.3,0.3-0.3c0.3,0,0.8,0.1,0.9,0c4-4.4,8-8.8,12-13.2c0.7-0.8,0.7-1.7-0.2-2.4
		c-1.1-0.9-2.3-1.8-3.8-1.8c-2.6,0.1-5.1-0.5-7.7-0.1c-0.2,0.1-0.5,0.2-0.7,0.2c-7.2-0.2-14.4-2.4-21.7-1.3
		c-1.9,0.3-2.7-0.9-2.8-2.9c-0.2-2.2,1.5-3,2.6-4.3c6.1,1.2,12.3,1.4,18.4,1.9c2.5,0.2,5.1,0.8,7.5-0.5c4.5,0.8,8.9,1.6,13.5,1.7
		c2.3,0,5-0.1,6.3,2.8c0,0.1,0.5,0,0.7,0.1c1.4,2.1,1.1,3.8-0.9,5.2c-1.4,0.9-2.6,1.9-4.4,2.2c-1.6,0.3-2.3,1.5-2.1,3.2
		c-0.1,0.2-0.1,0.3-0.3,0.4l-0.1,0c0,0,0,0.1,0,0.1c-0.2,0.2-0.4,0.4-0.6,0.7c-1.5,1.6-3.7,2.6-3.9,5.1l-0.1,0
		c-0.2,0.2-0.3,0.3-0.5,0.5l0,0c-1.7,0-2.5,0.8-2.5,2.5l0-0.1c-0.2,0.2-0.4,0.4-0.5,0.6l0,0c-1.3-0.2-1.6,0.5-1.5,1.6
		c-1.5,1.7-3.4,3.1-4.4,5c-2.5,4.6-5.7,8.5-9.4,12.2c-0.6,0-1.1,0.2-1.5,0.7c-3.5,4.6-6.5,9.6-10.2,14
		C291.8,67.2,292.3,68.2,294.1,67.7z"/>
	<path style="fill:#0E0E56;" d="M352.6,67.4c-3.7-6-7-12.2-11-18.1c-0.2-0.4-0.3-0.7-0.5-1.1c0.7-5.4,1.3-10.9,2-16.3
		c0.6-4.6,0.7-9.2,1.4-13.8c0.3-1.5,0.6-3.3-1.8-4c-1-0.3-0.3-1,0.4-1.3c4.8,2,6.4,3.7,4.9,9.2c-0.7,2.6,0.3,5.3-0.9,7.8
		c-0.9,0.6-1.2,1.5-1.5,2.5c-1.3,4.5,0.3,8.7,0.9,13c0.8,2.3,1.3,4.8,1.5,7.2c0.4,5,1.2,5.6,6,4.3c0,0,0,0,0,0
		c0.2,2.4,2.9,4.4,5.8,4.2c0.8-0.1,1.9-0.1,2.2-0.9c1.2-3,4.1-4.7,5.6-7.4c2.1,0.5,3.6-0.1,4.9-1.9c1.3-1.8,1.7-4,2.6-5.9
		c2.8-6.3,6.1-12.3,9.2-18.5c1.5-3,3.8-5.9,1.8-9.6c0-1.4,0.1-2.9,1.3-3.9c0.6-1.2,0.9-2.6,0.8-4c0.1-0.2,0.1-0.4,0.2-0.7
		c0.7,0.3,1.4,0.8,1.6-0.5c0.2-2,1.1-4,0.7-6.1c0.1-1,0.4-1.8,1.6-1.7c1.2,0.1,2.5,0.2,3,1.7c0.4,1.3,1.1,2.4,2.5,2.8
		c0.1,1,0,1.9-0.1,2.9c-0.3,2.4-0.6,4.9-0.3,7.3c0,0,0,0,0,0c-0.1,0.2-0.3,0.3-0.4,0.5c-0.1,1.1-0.3,2.1-0.9,3
		c-2.7,4.8-5.6,9.5-8.1,14.5c-1,1.9-2.8,3.6-2.5,6c-0.6,1.1-0.8,2.7-1.7,3.2c-3.3,1.6-3.7,4.7-4.3,7.6c-1.7,5.6-4.1,10.9-6.9,16.1
		c-1.2,2.1-2.4,4.2-5.1,4.6c-4.2,0.7-8.5,1-12.5-1c0,0,0,0,0,0c0-0.3-0.1-0.5-0.5-0.5c0,0,0-0.1,0-0.1
		C354.1,67.8,353.3,67.6,352.6,67.4z M388.9,14.3c-0.2-0.7,0.6-1.6-0.3-2.4C387.9,12.9,388.7,13.6,388.9,14.3z"/>
	<path style="fill:#0E0E56;" d="M414.3,10.4c0.7-0.2,1-1.2,1.8-1.2c0.1,1.5-0.3,2.9-0.8,4.3c-2.8,7.7-6.3,15.1-7,23.4
		c-0.2,2.1-0.5,4.2-1.5,6c-0.7,1.5-0.6,2.5,0.5,3.5c0,1.2-0.1,2.4-0.1,3.6c-0.2,0.7-0.7,1.3-1.2,1.9c-0.6,0.6-0.5,0.9,0.3,1.3
		c2.5,1.3,2.5,3.7,0.3,5.3c-1.6,1.1-2,3.2-3.5,4.5c-1.1,0.9,1.4,4,3.5,4.2c0.7,0.1,1.6-0.2,2.2,0.3c1.9,2,3.6,0.8,5.4-0.1
		c0.3-0.1,0.7-0.2,1-0.3c3,0.1,6.3-0.6,8.9,0.4c2.2,0.9,4.3,0.7,6,0.2c2.5-0.8,4.4-0.4,6.3,0.8c1.3,0.8,2.5,2.4,1.6,3.7
		c-0.8,1.1-1.3,3.3-3.7,2.7c-2.8-0.7-5.8-0.8-8.7-0.6c-0.5,0-1.4-0.4-1.4,0.7c-2.2,0.1-4.5,0.1-6.7,0.2c-3.2,0-6.4-0.1-9.7,0
		c-1.5,0-3.1-0.4-4.6,0.6c-1.9,0.9-3.9,0.6-5.9,0.5c-0.7-1.2-1.1-2.1,0.9-2c1.3,0.1,2.6,0,4,0c1.1,0,2-0.3,1.9-1.7
		c-0.1-1.2,0.7-2.9-1.2-3.3c-1.4-0.2-1.6-0.9-1.9-2.1c-0.3-1.4-1.3-1.8-1.8-1c-1.1,1.7-1.9,0.6-2.7-0.2c-0.5-0.5-0.3-1.5-1.3-1.7
		c-0.2-0.7-0.3-1.5-0.1-2.2c0.7-0.3,0.8-1,1-1.6c1.1-4,1.8-8.1,3.4-11.9c2-5,1.8-10.4,3.9-15.4c0.3-0.6,0.3-1.4-0.2-1.9
		c-0.4-0.4-0.5,0.2-0.6,0.5c-0.1-1.3-0.4-2.6,0.6-3.7c2.2-1.6,0.9-3.9,1.1-5.8c0-0.4,0.1-0.9,0.5-1.1c1.4,1,1.6,1,1.7,0.1
		c0.1-3.6,2.8-5.5,4.9-7.8c0.6-0.7,1.5-1.1,0.9-2.2c0.2-0.1,0.5-0.2,0.7-0.2c0,0,0.2,0,0.2,0c0.3-0.1,0.5-0.3,0.8-0.4
		C413.9,10.8,414.2,10.7,414.3,10.4z"/>
	<path style="fill:#0E0E56;" d="M224,12.8c0,0.2,0,0.3,0.1,0.4c0.5,3.8,0.5,3.8-2.3,4.1c-2-0.1-4.1-0.9-6.1,0.3
		c-1.1,0.6-2.2,0.8-3.3,0.7c-3.3-0.4-6,1.4-8.9,2.3c-1.1,0.3-2.7,0.2-3.4,1.7c-0.1,0.1-0.2,0.1-0.3,0.1c-1.4-0.1-2.8-0.2-4.2-0.2
		c-3,0-5.8,0.9-7.9,3.1c-3.9,0.7-7.5,2.5-11.4,2.9c0.1-2.9,2.5-2.9,5.2-3.3c-3.5-1.7-6.2-2.6-9.3-2.7c-3-0.1-5.6,1.6-8.6,1
		c1.7-1.6,4-1.4,6-2c3.3-1,6.9-0.8,10-2.7c2.8-0.3,5.2-2.7,8.2-2c0.1,0,0.2,0,0.2-0.1c3.1-1.9,6.7-2.6,10.3-3
		c5.5-0.7,11-1.5,16.4-2.5C218.5,10.2,221.1,11.1,224,12.8z"/>
	<path style="fill:#0A0922;" d="M163.6,23.2c3,0.6,5.6-1.1,8.6-1c3.1,0.1,5.8,1,9.3,2.7c-2.7,0.4-5.1,0.4-5.2,3.3
		c-4.3,1.8-8.5,3.7-12.1,6.5c0.2-1.4-0.7-2.9,0.8-4.1c0.5-0.4-0.2-1.2-1-1.3c-0.9-0.1-1.6,0.2-2.2,0.9c-0.7,0.9-0.8,1.8-0.3,2.8
		c0.8,1.9-0.7,4.7-2.6,4.9c-0.5,0-0.8-0.3-0.9-0.7c-0.6-1.8-2.4-2.7-3.1-4.5c-0.5-1.1-1.4-1.5-2.9-0.9c-1.6,0.7-3.3,0.7-4.7,2.2
		c-1,1-3-0.2-4.6-0.2c-0.2-0.2-0.5-0.4-0.7-0.6c0-2.4,0.6-4.2,3.5-4.5c1.7-0.2,3.4-0.8,5-1.5C154.7,25.4,158.8,23.2,163.6,23.2z"/>
	<path style="fill:#18353C;" d="M163.6,23.2c-4.8-0.1-8.9,2.2-13.1,4c-1.6,0.7-3.3,1.3-5,1.5c-2.9,0.3-3.5,2.1-3.5,4.5
		c-0.6,0.1-1.1-0.1-1.1-0.7c-0.2-2-1.1-3.7-2-5.5c-0.5-0.9,0.2-1.3,0.9-1.7c3.6-2.2,7.2-4.4,10.8-6.6c1.5-0.9,3.1-0.5,4.6-0.5
		c1.7,0,3.3,0,5,0c5,0.2,10,1.1,15-0.1c-1.4-0.9-2.7,1.4-4-0.1c1.8-1.2,4.1-0.9,6-1.8c-0.3,2,1.3,1.9,2.5,2.2c-3,1.9-6.7,1.7-10,2.7
		C167.6,21.8,165.3,21.6,163.6,23.2z"/>
	<path style="fill:#18353C;" d="M103.4,89.5c-1.5,3.9-3.1,7.7-4.4,11.6c-1.9,5.6-6.2,9.5-9.4,14.2c-0.9,1.2-1.8,2.4-2.8,3.5
		c-0.4,0.4-0.9,0.9-1.5,0.4c-0.4-0.3-0.2-0.7,0.3-1c1.7-1,0.6-1.5-0.4-2c0.4-5,1.2-10.1,1.2-15.1c0-4.1,2.2-7.1,3.5-10.6
		c0.4-1.2,1.3-2.2,1.6-3.3c0.5-1.7,0.3-2.8-2-3.7c-2.2-0.8-4.3-0.6-6.4-1.2c3.6,0.6,7.3-1.5,10.9,0l0,0c0,0.7,0,1.4,0.6,2
		c-0.8,5.3-3.2,10-5.1,15c-1.6,4.3-3.4,8.4-3.1,13.1c0.1,1.4,0.3,2,1.7,1.9c3.6-2.4,5.5-6.2,7.2-9.9c2.2-4.7,3.3-10,4.8-15
		c0.5-1.6,2.2-2.1,2.5-3.7c1.6,2.2,2.6-0.7,3.9-0.4c-0.2,0.6,0.2,1.1,0.4,1.6c0.4,1,0.1,1.4-1,1.2C104.8,88,103.8,88.1,103.4,89.5z"
		/>
	<path style="fill:#0A0922;" d="M164.1,114.6c-0.2-4.2-1.5-8.1-2.3-12.2c-1-5.2-2.4-10.3-1.6-15.6c0.8-3.1,0.3-6.3,0.4-9.5
		c0-3.4,0-6.7,0.5-10c2.2,3.5,1.5,7.9,3.1,11.6c1.2,2.9,1,5.8,1,8.8c0,2.2-0.1,4.3,0,6.5c0,0.6-0.6,1.8,0.9,1.8
		c0,4.3,0,8.6,0.1,12.9c0.1,2,0,4.1,1.9,5.6C166.9,115.9,165.5,115.5,164.1,114.6z"/>
	<path style="fill:#0E0E56;" d="M138.1,87.8c-0.9,1.7-1.9,3.5-2.8,5.2c-0.7,1.4-0.1,2.7,0.3,4.1c1.6,5,4.4,9.6,5.8,14.6
		c-0.9,2.3-2,0.5-2.1-0.2c-0.2-1.7-1.6-2.9-1.8-4.6c-0.1-0.6-0.3-1.5-1.2-1.3c-1.7,0.4-1.3-0.5-0.8-1.3c0.8-1.4,0.3-2-1.1-2.1
		c-0.3,0-0.6-0.3-0.8-0.4c1.1-1.8-0.7-3.3-0.6-4.7c0.7-5.8-2.1-10.5-3.9-15.6c-0.3-0.9-1.2-1.7-0.1-2.7c1-1,2.2-2.1,3.4-1.2
		c1.3,0.9,3.3-1.4,4,1.2c0.1,0.2,0.4-0.3,0.6-0.5c1.4-1.4,4.2-0.7,5,1.1c-0.3,0.6-1.1,1.1-0.9,1.9C140.2,83.4,139.1,85.6,138.1,87.8
		z"/>
	<path style="fill:#0E0E56;" d="M106.5,85.3c-1.4-0.3-2.3,2.6-3.9,0.4c-0.3,1.6-2,2.1-2.5,3.7c-1.5,5.1-2.6,10.3-4.8,15
		c-1.7,3.6-3.7,7.4-7.2,9.8c0.1-2.4,0.6-4.6,1.8-6.9c2.8-5.5,5-11.3,7-17.1c0.7-2.1,2.1-3.9,2.5-6.3c0.6-3.8,2.7-4.5,6.1-2.8
		c0.9,0.4,1.6,0.5,2.3-0.2c0.7-0.6,1.4-0.8,2.2-0.2c1,0.7,0.4,1.4,0.2,2.2c-0.3,0.4-0.6,0.8-0.9,1.1
		C108.4,84.3,107.8,85.5,106.5,85.3z"/>
	<path style="fill:#0A0922;" d="M119.7,66.2c-1.3-7-2.4-14.1-4.3-21c-0.5-1.8-0.2-3.6,0.7-5.3c1.3-2.4,2.5-4.9,3.7-7.3
		c0.2-0.4,0.1-0.8-0.1-1.2c2.7-0.6,0.8,1.7,1.5,2.4c-0.3,1.1,0.3,2.1,0.5,3.1c-1.2,3.4-0.3,6.9-0.5,10.3c0,0.7,0,1.5,0.1,2.2
		c0,0.5,0.3,0.8,0.7,0.9c0,0.4,0,0.7,0,1.1c-1.6,0.9-1.6,1-0.9,1.9c0,3.2,0,6.3,0,9.5C121.2,64.1,120.9,65.3,119.7,66.2z"/>
	<path style="fill:#18353C;" d="M137.6,111.4c-1.1,0.9-0.3,2-0.5,3c-0.1,0.5,0.2,1-0.5,1.3c-0.4,0.1-0.9,0-1.1-0.3
		c-1.2-1.8-3.2-2.7-3.6-5.3c-0.3-2.3-1.5-4.7-3.7-6.1c0.8-2.3-0.4-4.3-1.4-6c-2.5-4-4-8.6-6.7-12.6c0-1-0.1-1.9-0.1-2.9
		c1.6-0.1,3.3,0,4,1.8c1.1,2.7,2.1,5.4,3.1,8.1c1.1,2.9,2,6,3.7,8.7C133,104.5,135.3,107.9,137.6,111.4z"/>
	<path style="fill:#0E0E56;" d="M119.7,66.2c1.2-0.8,1.5-2,1.5-3.5c-0.1-3.2,0-6.3,0-9.5c1-0.3,0.9-1.1,0.9-1.9c0-0.4,0-0.7,0-1.1
		c0-0.5-0.3-0.8-0.7-0.9c0-0.7,0-1.5-0.1-2.2c1.3,0,1.9,0.6,1.9,2c0,1.2-0.3,2.5,0.3,3.7c0.9,1.7,0.9,3.2,0,4.9
		c-0.5,0.9-0.4,2,0,3.3c0.5-0.6,0.8-1,1.2-1.4c0.7,0.6-0.2,2.1,1.4,2c0.5,0.9,1.3,1.5,2.1,2.1c0.1,1,0.8,1.6,1.5,2.1
		c-0.4,2.4,2,3.5,2.5,5.4c-0.6,1.4-2,1.3-3,0.9c-1.9-0.8-4.2-0.9-5.6-2.8c-0.9-1.3-2-1.3-3,0C119,68.6,119.8,67.3,119.7,66.2z"/>
	<path style="fill:#18353C;" d="M132.2,71.3c-0.5-1.9-2.9-3.1-2.5-5.4c3.3,0.2,6.2,1.9,9.3,2.7c1.4,0.4,2.7,0.9,4.1,1.2
		c2.5,0.5,5.3,3.8,5.1,6c-0.2,2.6-2,4.5-4.6,4.6c-1.1,0-1.7,0.3-2.3,1c-0.1-0.9,0.6-1.3,0.9-1.9c0.2-0.2,0.3-0.4,0.5-0.6
		c1.9-1.3,2.4-3.1,1.5-5.1c-0.8-2-3.3-3.1-5.6-2.7C136.5,71.4,134.3,71.2,132.2,71.3z"/>
	<path style="fill:#18353C;" d="M314.5,22.8c1.7-1.3,2.8-3.1,3.9-4.9c0.7-1.2-0.3-1.4-1.2-1.7c-1.8-0.5-3.7-0.7-5.4-1.7
		c2.6-0.5,5.1,0.2,7.7,0.1c1.4-0.1,2.7,0.9,3.8,1.8c0.9,0.7,0.9,1.6,0.2,2.4c-4,4.4-8,8.8-12,13.2c-0.1,0.2-0.6,0-0.9,0
		c0.8-2.5,3.6-4.1,3-7.2C313.6,23.9,313.8,23.3,314.5,22.8z"/>
	<path style="fill:#18353C;" d="M414.1,67.5c-1.8,0.9-3.5,2.1-5.4,0.1c-0.5-0.6-1.4-0.3-2.2-0.3c-2.1-0.2-4.6-3.3-3.5-4.2
		c1.6-1.3,2-3.4,3.5-4.5c2.2-1.7,2.2-4.1-0.3-5.3c-0.8-0.4-0.8-0.7-0.3-1.3c0.5-0.5,1-1.1,1.2-1.9c0.3,0.3,0.5,0.6,0.8,0.9
		c1,3.4,2.1,6.8,3.1,10.3C412,63.4,411.8,66,414.1,67.5z M410.1,65c0.4-1.7-0.7-2.8-1.8-3.6c-0.6-0.5-1.8-0.4-2.1,0.8
		c-0.1,0.5-0.4,0.9-0.4,1.4c-0.1,0.8-0.7,1.8,0.6,2.3C407.4,66.3,409.4,65.9,410.1,65z"/>
	<path style="fill:#18353C;" d="M407.4,46.5c-1.1-1-1.3-2.1-0.5-3.5c0.9-1.8,1.3-3.9,1.5-6c0.7-8.3,4.2-15.7,7-23.4
		c0.5-1.4,0.9-2.8,0.8-4.3c1.9,0.2,1.7,0.1,1.7,1.5c-0.1,2.3-1.7,4.1-1.8,6.4c-2.4,4.2-3.6,8.9-4.9,13.5
		C409.7,35.8,408.6,41.1,407.4,46.5z"/>
	<path style="fill:#18353C;" d="M439.1,72.8c-0.8,0.9-2,1.2-2.4,2.8c-0.3,1.3-3,1.2-3.8,0.6c-2.9-2-6-0.6-8.9-1.1
		c0-1.2,0.9-0.7,1.4-0.7c2.9-0.2,5.9-0.1,8.7,0.6c2.4,0.6,2.9-1.6,3.7-2.7c0.9-1.2-0.4-2.9-1.6-3.7c-1.9-1.2-3.9-1.6-6.3-0.8
		c-1.7,0.5-3.7,0.7-6-0.2c-2.6-1-5.9-0.4-8.9-0.4c0.3-1.3,1.3-0.9,2.2-1c1.7-0.1,3.5,0.1,4.9-1c0.6,0,1.2-0.1,1.8-0.1
		c1.1,0.5,2.3,0.8,3.1,1.5c1.3,1.1,1.7,0.3,2.2-0.7c1.5-0.9,6.4,0,7.8,1.3C438.8,68.7,438.9,70.7,439.1,72.8z"/>
	<path style="fill:#0A0922;" d="M203.7,76.2c1.4,3.8,2.1,4.3,6.4,4.1c0,1.4-0.1,2.9,1.8,3.3c0.1,0,0.3,0.2,0.4,0.3
		c0.6,3.8,3.7,1.8,5.6,2.4c-3.3,0.7-6.7,0.7-10.1,1c-0.6,0.1-1.3,0.1-1.5-0.6c-1.1-3.8-3.8-6.9-4.4-10.9c-0.1-0.6-0.2-1,0.6-0.9
		C202.9,75.3,203.3,75.8,203.7,76.2z"/>
	<path style="fill:#18353C;" d="M289.1,6.2c0.1-1.1,1-0.9,1.7-0.9c2.5,0,5-0.8,7.5,0.5c0.5,0.3,1.3,0,1.9-0.1
		c3.9,0.2,7.8,0.4,11.7,0.5c0.9,0.9,2.6-0.2,3.2,1.4c-2.4,1.3-5.1,0.7-7.5,0.5C301.4,7.6,295.2,7.5,289.1,6.2z"/>
	<path style="fill:#18353C;" d="M208.2,21.2c-2.8-0.2-5.3,1.2-8.1,1.1c0.6-1.5,2.3-1.4,3.4-1.7c2.9-0.8,5.6-2.7,8.9-2.3
		c1.2,0.1,2.3,0,3.3-0.7c1.9-1.1,4-0.4,6.1-0.3c-0.8,0.5-1.8,0.7-1.8,1.9C216.1,19.9,212.1,20.5,208.2,21.2z"/>
	<path style="fill:#0A0922;" d="M312.2,70.4c1.9-0.7,3.8-1.1,5.8-0.9c0.8,0.5,2.1,0.3,2.2,1.7c-1.1,0-1.8,0.2-2.1,1.5
		c-0.5,2.5-2.6,1.6-4,1.3C312.3,73.7,311.7,72.3,312.2,70.4z"/>
	<path style="fill:#18353C;" d="M140.6,54.4c-0.9-1.1-0.4-2.4-0.5-3.6c0.5-1.8,2-0.6,3-1.1c1.7-0.2,3.4-1.8,5.2-0.1
		c-0.7,0.8-1.6,1.1-2.6,1.2C143.4,51.3,141.8,52.5,140.6,54.4z"/>
	<path style="fill:#18353C;" d="M152.1,36.9c-0.5,0-1.1-0.2-1.5,0.4c-2.2,0.2-4.3-0.2-6.3-1C146.9,36.4,149.5,35.6,152.1,36.9z"/>
	<path style="fill:#0A0922;" d="M320.9,73.1c-0.2,0-0.4,1.1-0.7,0.1c-0.2-0.6,0-1.3,0-2C321.4,71.5,321.2,72.3,320.9,73.1z"/>
	<path style="fill:#18353C;" d="M413.6,10.6c0-0.1,0.1-0.2,0.2-0.3c0.2,0,0.3,0,0.5,0.1C414.2,10.7,413.9,10.8,413.6,10.6z"/>
	<path style="fill:#18353C;" d="M19.5,114.2c-0.1,0.1-0.3,0.3-0.4,0.4c-2.3,1.5-2.7,3.7-2.3,6.3c0.4,2.9,0.6,5.9,0.9,8.9
		c0.8,7.3,1.6,14.7,2.4,22c-0.8,2.7-3.2,3.7-5.2,5.1c-0.2,0.1-0.5,0.3-0.7,0.2c-0.3-0.2-0.7-0.5-0.8-0.8c-0.9-2-4.2-1.8-4.3-4.6
		c-0.1-1.6-0.6-3.2-1-4.8c-0.1-1.1-0.2-2.1-0.4-3.2c-1.2-7.4-2.5-14.8-3.8-22.2c0,0,0.2-0.1,0.2-0.1c3.6,6.2,4.3,13.1,5,20.1
		c0.4,4.1,0.3,8.3,2.8,12c1,1.5,2,2.4,3.8,1.9c1.4-0.4,3.4-3.2,3.2-4.3c-0.6-2.9-1.5-5.8-1.8-8.7c-0.7-6-3.5-11.6-2.8-17.9
		c0.6-5.6,0.6-11.4,0.3-17.1c-0.1-2.9,0.6-3.3,3.4-2.4c2.6,0.8,4.2,3.1,6.5,4.6c-1.9,1-3.2,2.8-4.5,4.4c0,0,0,0,0,0
		C19.9,113.8,19.7,114,19.5,114.2z"/>
	<path style="fill:#18353C;" d="M0.1,114.8c0.7-1.6-0.3-3.2-0.1-4.8c0.1-1.1,0.1-2.3,1.1-2.9c2.9-1.8,3.2-5,4.3-7.8
		c0.2-0.5,0.2-1.2,0.7-1.5c3,1.2,3.6,3.9,0.8,5.9c-3.3,2.4-4.6,5.7-5.6,9.3C1,114,1.1,115.3,2,115.7c2.7,1.2,2,3.5,2.2,5.6
		c0,0-0.2,0.1-0.2,0.1c-0.2-0.3-0.5-0.6-0.7-0.9C2.7,118.3,1.6,116.5,0.1,114.8z"/>
	<path style="fill:#0E0E56;" d="M94.1,82.3c-3.6-1.6-7.3,0.5-10.9,0c-0.7-1.3,0.5-1.3,1.1-1.6c0.3-0.1,0.6-0.2,0.9-0.3
		c0.9-0.1,2.1,0.3,2.4-1.1c0.2-0.1,0.3-0.3,0.5-0.4C90.3,79.6,93.1,79.5,94.1,82.3z"/>
	<path style="fill:#0A0922;" d="M85.2,116.2c1,0.5,2.1,1,0.4,2C85.1,117.6,85,116.9,85.2,116.2z"/>
	<path style="fill:#0A0922;" d="M140.6,54.4c1.2-1.9,2.8-3.1,5-3.5c1-0.2,1.9-0.5,2.6-1.2c2-1.3,4.3-2.1,5.5-4.3
		c1.9,0.1,3.2-1.1,4.5-2.2c0.6-0.5,1.2-1.1,1.9-0.9c2.4,0.5,4.9,0,7.1,1.5c0.7,0.5,1.5,0.5,2.1,0.2c2.4-1.1,4.7-0.8,7.2-0.1
		c2.1,0.7,4.6,0.9,6.8-0.5c2.6-1.5,5.3-1.6,8.2-1c-1.4,2.4-3.4,3.1-6,2.9c-1.5-0.1-2.8,0.8-4,1.8c-0.5,0.4-1.3,0.8-1,1.6
		c0.2,0.8,1.2,0.3,1.8,0.6c0,0.8-0.6,1-1.2,0.9c-3-0.4-5.2,1.2-7.3,3c-1.2,0.2-1.7,1-1.9,2.1c-1.3,0.5-1.1,2-1.9,2.7
		c0-1-0.3-1.9-1.2-2.3c-1.1-0.4-0.7,1-1.4,1.4c-0.8,0.5-1.5,1.3-2.4,1.8c-1.6,0.9-2.9,0.2-3-1.7c-0.1-1.5-0.7-2.1-2.2-2
		c-0.8,0-1.4-0.3-2.1-0.6c-3.4-1.3-7.3-0.4-8.8,2.1c0,0.1-0.1,0.3-0.1,0.4c-2.3-0.4-4.6-0.1-6.9,0.1
		C141.6,56.3,141.1,55.3,140.6,54.4z"/>
	<path style="fill:#18353C;" d="M227.8,26.6c7.4-7.1,16.4-11.4,26.1-14.3c2.1-0.6,4-2,6.4-1.9c-0.8,1.8-2.7,2-4.2,2.7
		c-8.3,4.2-16.7,8.3-25,12.4C230.1,26,229.2,26.9,227.8,26.6z"/>
	<path style="fill:#18353C;" d="M277.2,14.8c-8.1,3.3-16.5,5.6-24.7,8.4c-1.4,0.5-2.7,1.2-4.3,1.2c0.1-0.8,0.6-1.2,1.3-1.4
		c5.5-2.1,10.6-5.1,15.9-7.5C269.2,13.6,273.1,14.2,277.2,14.8z"/>
	<path style="fill:#0A0922;" d="M208.1,37.1c0.4-0.8,1.3-0.7,2-1c1.1,2.2,3.1,1.2,4.6,0.9c1.3-0.3,1.4,0.1,1.5,1.1
		c0.5,5,0.3,5.2-4.6,5.2c-2.4,0-4.6-1.4-7-1c-0.5,0.1-1-0.2-1.1-0.8c-0.1-0.6,0.2-0.9,0.7-1.1c0.8-0.3,1.7-0.9,2.5-1
		C208.1,39.2,208.2,38.3,208.1,37.1z"/>
	<path style="fill:#18353C;" d="M210.8,80.4c0.9-0.9,2-1.2,3.3-1.3c3.6-0.2,7-1.7,10.7-1.2C220.7,81.5,215.7,80.9,210.8,80.4z"/>
	<path style="fill:#18353C;" d="M277.8,13.8c0.4,0.1,0.6,0.4,0.3,0.7c-0.2,0.2-0.7,0.3-1,0.4C277.2,14.3,277.4,14,277.8,13.8z"/>
	<path style="fill:#18353C;" d="M261.2,9.5l0.1-0.2c0,0,0.2,0,0.2,0C261.5,9.5,261.4,9.5,261.2,9.5z"/>
	<polygon style="fill:#18353C;" points="260.8,10.1 260.8,9.9 261,9.9 260.9,10 	"/>
	<path style="fill:#0A0922;" d="M4.1,121.3c-0.2-2.1,0.5-4.4-2.2-5.6c-0.8-0.4-0.9-1.7-0.6-2.7c1-3.6,2.3-6.9,5.6-9.3
		c2.7-1.9,2.1-4.6-0.8-5.9c-0.3-0.7-0.8-1.3-1.5-1.5c-2.5-0.8-2.4-2.6-1.8-4.5c0.6-2,1.6-4,2.4-6c1.9-0.8,3.5-2.2,5.3-3.3
		c1.6-1,2.1-2.2,2.3-4c0.4-2.6,0.3-5.1,0.7-7.7c0.6-4.4,1.1-8.8,0.6-13.2c-0.4-3.2-1-6.5-3.1-9.3c-1-2.8-0.7-5.9-2.5-8.5
		c6.3,0.9,12.6,1.7,18.6,4.1c3.7,1.5,7.4,2.9,11.1,4.3C38,48.5,37.7,49,37.8,49c0.5,0.4,1,0,1.4-0.3c0.3,0,0.5,0,0.8,0
		c0.2,0.5,0.3,1.2,1,1.3c1.8,0.2,3.1,1.4,4.8,1.9c2.6,0.8,5,2.7,8,2.2c4.2,0.2,7.9,2,11.8,3.2c2.5,0.8,4.5,0,6.6-1.1
		c1.3-0.7,2.6-1.5,4.1-1.6c0,0.4-0.1,0.9,0.1,1.2c1.2,1.9,0.6,5,4,5.3c0,0,0,0,0,0c0,0.5,0,1,0,1.5c-7.5,1.2-13.7,5.2-20,9
		c-2.9,1.7-5.8,3.4-8.8,5.1c-0.6,0.3-1.2,0.7-1.3,1.4c-1.4,0.1-3.2-0.4-3,2c0,0,0,0,0,0c-1.4,0.1-3.2-0.4-3,2c0,0,0,0,0,0
		c-1.4-0.1-2.1,0.5-2,1.9c-1.5-0.3-2.3,1-3.1,1.7c-2.3,2.1-5.1,2.9-7.9,3.7c-1.6,0.4-2.3,0.9-1.2,2.5c0.2,0.3,0.1,0.8,0.2,1.2
		c-3.9-1.4-5.8,2.2-8.6,3.5c-0.8,0.4-0.5,1.7,0.2,2.4c0.7,0.8,1.3,1.7,2.4,2c5.1,3,10,6.2,15.1,9.1c5.6,3.3,11.7,5.1,17.6,7.4
		c4.4,1.7,8.3,4.3,12.2,6.7c5,3.1,10.2,5.8,15,9.6c-1,0.4-1.8,0-2.6-0.4c-10.3-4-20.7-8-31-12c-1-0.4-1.9-0.5-2.9-0.4c0,0,0,0,0,0
		c-0.2-0.2-0.4-0.3-0.7-0.5c-3.4-0.7-5.8-3.4-8.9-4.7c-4.6-2-9-4.5-13.4-6.9c-2.2-1.4-3.8-3.7-6.5-4.6c-2.8-0.9-3.6-0.5-3.4,2.4
		c0.3,5.7,0.2,11.4-0.3,17.1c-0.6,6.3,2.2,11.9,2.8,17.9c0.3,2.9,1.2,5.8,1.8,8.7c0.2,1.2-1.8,3.9-3.2,4.3c-1.8,0.5-2.8-0.3-3.8-1.9
		c-2.5-3.7-2.4-7.9-2.8-12C8.5,134.4,7.8,127.5,4.1,121.3z M58.6,63.3c-0.2-0.2-0.3-0.4-0.5-0.6c-0.8-2.2-2.6-0.5-3.9-0.9
		c-1.6-0.6-3-1.6-4.8-1.5c0.5-0.6,1.5-0.6,1.8-1.7c-4.7-0.2-7.8-3.9-12.1-4.9c-1.9-0.4-3.9-1.5-5.8-2.3c-2.5-1.1-5.5-0.9-7.8-2.9
		c-2.1-1.8-3.5-1.3-4.5,1.4c-1.3,3.2-1.1,6.7-1.9,10.1c-0.1,0.4,0.3,0.9,0.4,1.4c-0.1,1.6,0.9,3.1,0.5,4.8c-1.4-0.5-0.6-3.1-3-2.9
		c0,2.3,0,4.6,0,6.9c0,0.8,0.4,1.6,1.2,1.7c1.1,0.2,0.7-0.9,0.8-1.4c0.1-0.5,0.4-0.9,0.9-1.2c0.6,2.8-0.5,5.4-0.8,8.1
		c-0.3,0.2-0.7,0.4-0.7,0.6c-0.1,3.1-1.5,6-2.2,9c-0.5,2.3,1.1,5.1,3.2,6.1c0.8,0.4,1.4,0.2,1.7-0.7c0.8,0.1,1.4-0.3,2.1-0.7
		c9.1-6.5,18.2-13.2,26.9-20.2c0.7,0,1.6,0.1,2.2-0.2c1-0.6,2.8-0.9,1.9-2.8l0,0c1.8-0.6,3.6-1,5-2.5C60.3,64.6,60,63.9,58.6,63.3
		L58.6,63.3z"/>
	<path style="fill:#0A0922;" d="M94.1,82.3c-1-2.9-3.8-2.7-6-3.5c5.5-2,8.4-6.3,11-11.2c1.9-3.5,4.4-6.7,6-10.3
		c1.6-3.6,3.1-7.3,4.6-11c0.8,0.9,0.4,2,0.5,3.1c0.4,5.3-1,10.7,0.6,15.9c0,1.2,0,2.3-0.5,3.4c-0.1-1.2-0.2-2.5-0.3-3.7
		c-1.3,3.1-0.4,6.2,0,9.2c1.9,0.5,3.7,0.7,5.6,0.4c0.8,0.1,1.7,0.2,2.4-0.3c0-0.1,0.1-0.1,0.2-0.2c2.5-0.4,3.2-1.7,2.4-4.9
		c1-1.3,2.1-1.2,3,0c1.4,1.9,3.6,2.1,5.6,2.8c0.9,0.4,2.3,0.5,3-0.9c2.1,0,4.3,0.2,6.4-0.2c2.3-0.5,4.7,0.7,5.6,2.7
		c0.8,2,0.3,3.8-1.5,5.1c-0.2,0.1-0.3,0.4-0.5,0.6c-0.8-1.8-3.6-2.5-5-1.1c-0.2,0.2-0.6,0.7-0.6,0.5c-0.7-2.5-2.7-0.2-4-1.2
		c-1.2-0.9-2.4,0.2-3.4,1.2c-1.1,1-0.2,1.8,0.1,2.7c1.8,5.1,4.6,9.9,3.9,15.6c-0.2,1.4,1.7,3,0.6,4.7c0.3,0.1,0.5,0.4,0.8,0.4
		c1.5,0.2,2,0.8,1.1,2.1c-0.5,0.8-0.9,1.6,0.8,1.3c0.9-0.2,1.1,0.7,1.2,1.3c0.2,1.7,1.6,2.8,1.8,4.6c0.1,0.7,1.2,2.4,2.1,0.2
		c1.3,1.4-0.1,2.3-0.9,2.9c-1.2,0.9-1.3-0.6-1.8-1.2c-0.5-0.6-0.9-1.4-1.3-2.1c-2.3-3.5-4.6-6.9-6.8-10.4c-1.7-2.7-2.6-5.7-3.7-8.7
		c-1-2.7-2-5.4-3.1-8.1c-0.7-1.8-2.4-1.9-4-1.8c-3.3-0.5-6.5-0.3-9.7,0.6c0.1-0.7,0.8-1.5-0.2-2.2c-0.9-0.6-1.5-0.4-2.2,0.2
		c-0.7,0.6-1.4,0.6-2.3,0.2c-3.4-1.7-5.6-1-6.1,2.8c-0.4,2.4-1.8,4.2-2.5,6.3c-2,5.8-4.3,11.6-7,17.1c-1.2,2.3-1.7,4.5-1.8,6.9
		c-1.4,0.1-1.6-0.4-1.7-1.9c-0.2-4.7,1.6-8.9,3.1-13.1c1.8-4.9,4.2-9.7,5.1-15C95.2,83.4,95.3,82.7,94.1,82.3L94.1,82.3z"/>
	<path style="fill:#0E0E56;" d="M111.6,58.3c-0.3,2.4-0.6,4.7-0.9,7.1c-1.6-5.3-0.2-10.6-0.6-15.9c-0.1-1,0.3-2.2-0.5-3.1
		c0.3-1,1-2,1.8-1.4c1.1,0.7,2.2,1.7,2.1,3.4C113.4,51.8,112.4,55,111.6,58.3z"/>
	<path style="fill:#0E0E56;" d="M24.1,101.3c-1.1-0.3-1.7-1.2-2.4-2c-0.7-0.7-0.9-2.1-0.2-2.4c2.8-1.3,4.7-5,8.6-3.5
		c-1.1,2-2.1,3.7-4.8,4.1C23.2,97.7,24.5,99.9,24.1,101.3z"/>
	<path style="fill:#0E0E56;" d="M53.7,54.2c-3,0.6-5.3-1.4-8-2.2c-1.6-0.5-3-1.7-4.8-1.9c-0.7-0.1-0.8-0.8-1-1.3
		C42.2,48.9,52.4,52.9,53.7,54.2z"/>
	<path style="fill:#0E0E56;" d="M80.1,61.2c-3.3-0.3-2.8-3.5-4-5.3c-0.2-0.3-0.1-0.8-0.1-1.2c1.8-0.2,4.4,2.5,4.3,4.4
		C80.4,59.8,80.2,60.5,80.1,61.2z"/>
	<path style="fill:#0E0E56;" d="M44.2,82.3c-0.2-2.4,1.6-1.9,3-2C46.8,81.9,45.5,82.2,44.2,82.3z"/>
	<path style="fill:#0E0E56;" d="M47.1,80.3c-0.2-2.4,1.6-2,3-2C49.6,79.7,48.7,80.4,47.1,80.3z"/>
	<path style="fill:#0E0E56;" d="M42.2,84.2c-0.2-1.5,0.6-2.1,2-1.9C43.9,83.4,42.9,83.7,42.2,84.2z"/>
	<path style="fill:#0A0922;" d="M87.6,79.2c-0.3,1.4-1.5,1-2.4,1.1C85.8,79.6,86.8,79.5,87.6,79.2z"/>
	<path style="fill:#0E0E56;" d="M39.2,48.8c-0.4,0.3-0.9,0.7-1.4,0.3c0,0,0.3-0.5,0.4-0.7C38.5,48.4,38.8,48.6,39.2,48.8z"/>
	<path style="fill:#0E0E56;" d="M80.1,62.8c0-0.5,0-1,0-1.5C80.6,61.8,80.6,62.3,80.1,62.8z"/>
	<path style="fill:#18353C;" d="M341.1,48.2c-1.7,0.2-1.3-1.1-1.3-2c0.3-8.6,0.6-17.1,0.9-25.7c0-0.3,0-0.7,0-1c0-0.8-0.1-1.6-0.8-2
		c-0.8-0.5-1.4,0.2-1.9,0.7c-2.8,2.4-6.5,2.8-9.7,4.4c-0.2-1.7,0.5-2.9,2.1-3.2c1.7-0.3,3-1.3,4.4-2.2c2-1.3,2.3-3.1,0.9-5.2
		c1.3-0.8,1.6-0.7,2.5,1c0.3,0.7,0.1,2,1.2,1.8c1.1-0.1,0.6-1.4,0.8-2.1c0.4-1.3,0.4-2.9,2.7-2.1c1.7,0.6,1,1.2,0.4,2
		c-0.7,0.3-1.4,1-0.4,1.3c2.3,0.7,2,2.5,1.8,4c-0.8,4.6-0.9,9.2-1.4,13.8C342.4,37.4,341.7,42.8,341.1,48.2z"/>
	<path style="fill:#0A0922;" d="M277.2,84.6c-1.2,0.5-2.6,0.3-3.8,1.3c-0.8,0.7-2.8,1-3.9-0.5c0.7-0.7,0.9-1.7,0.5-2.5
		c-0.9-1.4-0.7-3-1.3-4.4c0.7-1.1,1.1-2.3,2.3-3c1.1,0.6,2.1,0.2,3.1-0.4c2.3,2.2,3,5.7,1,8.7C275.8,84.2,276.5,84.4,277.2,84.6z"/>
	<path style="fill:#18353C;" d="M321.3,74.5c0.3,0.1,0.5,0.2,0.8,0.3c0.1,1.5,0.1,2.6-2,2.9c-9.8,1.2-19.6,2.5-29.4,3.8
		c1.2-1.3,3-1.5,4.6-1.8c4.1-1,8.4-1.2,12.4-2.4c4-1.2,8-0.5,12-0.9C321,76.2,321.6,75.9,321.3,74.5z"/>
	<path style="fill:#18353C;" d="M327.1,23.8c0.2,2.8-2.2,3.7-3.9,5.1C323.5,26.4,325.7,25.4,327.1,23.8z"/>
	<path style="fill:#18353C;" d="M274,75.3c-1,0.5-2,1-3.1,0.4c1.2-1.4,2.5-2.6,4.1-3.4C274.7,73.2,273.8,74.1,274,75.3z"/>
	<path style="fill:#18353C;" d="M322.8,29.4c-0.5,1.1-1.4,2-2.5,2.5C320.2,30.2,321.1,29.4,322.8,29.4z"/>
	<path style="fill:#18353C;" d="M308.8,34.3c0.2-0.9,0.7-1.6,1.5-2C310.6,33.5,309.7,33.9,308.8,34.3z"/>
	<path style="fill:#18353C;" d="M319.8,32.4c-0.3,0.8-0.8,1.2-1.5,1.6C318.1,32.9,318.5,32.3,319.8,32.4z"/>
	<polygon style="fill:#18353C;" points="308.3,34.6 308.3,34.4 308.5,34.4 308.5,34.5 	"/>
	<polygon style="fill:#18353C;" points="327.9,23 327.9,23.1 327.8,23.1 327.8,23 	"/>
	<path style="fill:#18353C;" d="M320.3,31.9c-0.2,0.2-0.4,0.4-0.5,0.6C319.9,32.2,320.1,32.1,320.3,31.9z"/>
	<path style="fill:#18353C;" d="M323.2,28.9c-0.2,0.2-0.3,0.3-0.5,0.5C322.9,29.3,323.1,29.1,323.2,28.9z"/>
	<path style="fill:#18353C;" d="M367.6,52.7c2-4.1,4.3-8,6.5-12c1.6-2.9,2.6-6.3,4.2-9.2c2.7-4.8,4.6-10.1,7.7-14.7
		c2,3.7-0.3,6.6-1.8,9.6c-3.1,6.1-6.4,12.2-9.2,18.5c-0.9,2-1.3,4.1-2.6,5.9C371.2,52.6,369.7,53.2,367.6,52.7z"/>
	<path style="fill:#18353C;" d="M385.2,38.8c0.9,1.4,0.2,5.4-1.3,6.9c-1.1,1.1-2.7,1.7-2.6,3.9c0,1.3-1.3,0.6-2.1,0.1
		c0.6-3,1-6,4.3-7.6C384.4,41.5,384.7,39.9,385.2,38.8z"/>
	<path style="fill:#18353C;" d="M347.2,29.8c0,3.7,0,7.4-0.2,11.1c-0.1,1.5-0.4,2.9-0.4,4.4c-0.6-4.3-2.2-8.5-0.9-13
		C346,31.3,346.3,30.4,347.2,29.8z"/>
	<path style="fill:#18353C;" d="M397.5,4.5c1.5-0.3,1.4,0.7,1.5,1.6c0.4,3.1,0.4,6.1-1.9,8.6c-0.4-2.5,0-4.9,0.3-7.3
		C397.5,6.5,397.6,5.5,397.5,4.5z"/>
	<path style="fill:#18353C;" d="M388.2,8.2c0.1-2.4,1.7-4.3,2.2-6.6c0.4,2.1-0.4,4.1-0.7,6.1C389.7,9,388.9,8.6,388.2,8.2z"/>
	<path style="fill:#18353C;" d="M387.3,12.9c-0.1-1.4-0.3-2.8,0.8-4C388.2,10.3,387.9,11.6,387.3,12.9z"/>
	<path style="fill:#18353C;" d="M388.9,14.3c-0.3-0.8-1-1.5-0.3-2.4C389.5,12.7,388.8,13.6,388.9,14.3z"/>
	<path style="fill:#18353C;" d="M397.2,14.8c-0.1,0.2-0.3,0.3-0.4,0.5C396.9,15.1,397,15,397.2,14.8z"/>
	<path style="fill:#0A0922;" d="M397.2,76.3c-2.7-1-3.8-3.6-3-7.1c0.4-1.6,1.1-3.1,1-4.8c1,0.1,0.8,1.2,1.3,1.7
		c0.8,0.8,1.5,1.9,2.7,0.2c0.5-0.8,1.5-0.4,1.8,1c0.2,1.2,0.5,1.9,1.9,2.1c2,0.3,1.1,2.1,1.2,3.3c0.1,1.3-0.8,1.7-1.9,1.7
		c-1.3,0-2.7,0.1-4,0C396.1,74.1,396.5,75.1,397.2,76.3z"/>
	<path style="fill:#18353C;" d="M399.1,37.6c0.1-0.6,0-1.2,0.5-1.7c1.9-0.7,2.3-2.4,2.8-4c0.2-0.2,0.3-0.8,0.6-0.5
		c0.5,0.5,0.5,1.2,0.2,1.9c-2,4.9-1.8,10.4-3.9,15.4c-1.5,3.8-2.3,7.9-3.4,11.9c-0.2,0.7-0.3,1.3-1,1.6c0.6-7.4,2.4-14.6,3.7-21.9
		C398.9,39.4,399,38.5,399.1,37.6z"/>
	<path style="fill:#18353C;" d="M404.6,21.2c0.3-1.2,0.6-2.4,0.9-3.6c1.2-5.3,1.2-5.3,6.5-6.3c0.7,1.1-0.2,1.5-0.9,2.2
		c-2.1,2.3-4.8,4.2-4.9,7.8C406.3,22.2,406.1,22.2,404.6,21.2z"/>
	<path style="fill:#18353C;" d="M417.4,75.2c-4.7,0.5-9.5,0.6-14.2,0.6c1.4-1,3-0.5,4.6-0.6C410.9,75.1,414.2,75.2,417.4,75.2z"/>
	<path style="fill:#18353C;" d="M403,28.2c-0.2-2,0-4,1.1-5.8C403.9,24.3,405.2,26.5,403,28.2z"/>
	<polygon style="fill:#18353C;" points="412.7,11.1 412.8,11 412.9,11 	"/>
	<path style="fill:#18353C;" d="M199.8,22.4c-3.9,1.7-8,2.4-12.1,2.9c2.2-2.2,4.9-3.1,7.9-3.1C197,22.2,198.4,22.3,199.8,22.4z"/>
	<path style="fill:#0E0E56;" d="M268.6,78.6c0.6,1.4,0.4,3,1.3,4.4c0.5,0.8,0.2,1.7-0.5,2.5C267.2,82.9,266.9,80.5,268.6,78.6z"/>
	<path style="fill:#0E0E56;" d="M149.1,56.7c1.5-2.5,5.4-3.4,8.8-2.1c0.7,0.3,1.4,0.6,2.1,0.6c1.4,0,2.1,0.5,2.2,2
		c0.1,1.9,1.4,2.5,3,1.7c0.9-0.5,1.6-1.2,2.4-1.8c0.6-0.4,0.2-1.8,1.4-1.4c1,0.3,1.2,1.3,1.2,2.3c-0.8,1.8-1.5,3.6-2.3,5.4
		c-1,0.4-0.8,1.3-0.8,2.1c0,1.9,0,3.9,0,5.8c-0.4,7.3,0.2,14.5,0,21.8c-0.7,0.7,0,2.1-1.1,2.7c-1.5,0-0.9-1.2-0.9-1.8
		c-0.1-2.2,0-4.3,0-6.5c0-3,0.3-5.9-1-8.8c-1.6-3.7-0.8-8-3.1-11.6c0-0.3,0-0.6-0.1-0.8c0.1-1.5-0.4-3.4,0.4-4.5
		c1.7-2.4-0.4-1.5-1.2-1.7c0-0.5-0.1-1.1-0.1-1.6c-0.2-2.1-1.7-2.6-3.5-2.8C154,55.5,151.6,56.5,149.1,56.7z"/>
	<path style="fill:#18353C;" d="M149.1,56.7c2.5-0.3,5-1.2,7.6-0.9c1.8,0.2,3.3,0.7,3.5,2.8c-0.6,0-1.2,0.7-1.9,0.3
		c-2.2-1-4.4-0.7-6.6-0.2c-1.4,0.3-2.7,0.4-2.7-1.6C149,57,149,56.9,149.1,56.7z"/>
	<path style="fill:#0A0922;" d="M160.2,60.3c0.9,0.2,2.9-0.8,1.2,1.7c-0.7,1.1-0.3,3-0.4,4.5C159.6,64.5,160.2,62.3,160.2,60.3z"/>
	<path style="fill:#18353C;" d="M160.6,77.3c-0.1,3.2,0.4,6.3-0.4,9.5C160.1,83.6,160.2,80.5,160.6,77.3z"/>
	<path style="fill:#0E0E56;" d="M94.1,82.3c1.2,0.4,1.1,1.1,0.6,2C94.1,83.7,94.1,83,94.1,82.3z"/>
	<path style="fill:#18353C;" d="M126.6,53.1c-1.3,0.2-1.6,0.7-1.2,2c0.7,2.1,1.2,4.3,0.7,6.5c-1.5,0.1-0.7-1.4-1.4-2
		c-0.4,0.4-0.7,0.8-1.2,1.4c-0.4-1.3-0.5-2.4,0-3.3c0.9-1.7,0.9-3.2,0-4.9c-0.6-1.1-0.3-2.4-0.3-3.7c0-1.4-0.6-2-1.9-2
		c0.2-3.4-0.7-6.9,0.5-10.3c1.3,1,1.8,2.3,1.7,3.9c-0.1,2.6,0.1,5.1,0.7,7.6c0.3,1.4-0.1,3.6,2.4,3.8
		C126.5,52.2,126.6,52.8,126.6,53.1z"/>
	<path style="fill:#18353C;" d="M122,51.3c0,0.8,0.2,1.6-0.9,1.9C120.4,52.4,120.4,52.3,122,51.3z"/>
	<path style="fill:#18353C;" d="M121.3,49.4c0.5,0.1,0.7,0.4,0.7,0.9C121.5,50.1,121.3,49.8,121.3,49.4z"/>
	<path style="fill:#0A0922;" d="M167.1,71.4c0-1.9,0-3.9,0-5.8c0-0.8-0.2-1.7,0.8-2.1C167.6,66.1,167.4,68.7,167.1,71.4z"/>
	<path style="fill:#E5DD01;" d="M85.2,60.2c0.5,0.6,0.9,1.2,0.5,1.5c-0.6,0.5-0.6-0.2-0.6-0.6C85.1,61,85.2,60.7,85.2,60.2z"/>
	<path style="fill:#18353C;" d="M11,48.4c2,2.7,2.7,6,3.1,9.3c0.5,4.4-0.1,8.8-0.6,13.2c-0.3,2.6-0.3,5.1-0.7,7.7
		c-0.3,1.8-0.8,3-2.3,4c-1.7,1.1-3.3,2.5-5.3,3.3c0.8-3.2,2.3-6,3.5-9c1-2.4,1.8-4.8,1.4-7.4c-0.2-1.6,0-3.2,0.8-4.6
		c2.1-3.7,1.5-7.6,0.7-11.5C11.3,51.6,10.9,50,11,48.4z"/>
	<path style="fill:#18353C;" d="M46.9,120.8c0.2,0.2,0.4,0.3,0.7,0.5C47.4,121.2,47.2,121,46.9,120.8z"/>
	<path style="fill:#18353C;" d="M25.8,79.4c4.9-2.1,10-3.9,14.8-6.3c1.8-0.9,3.3-2.6,5.6-2.5c0.1,0,0.2,0,0.2-0.1
		c0.9-3.7,5.4-2.9,7.2-5.5c0.8-1.1,1.3-2.1,0.7-3.4c1.2,0.5,3-1.3,3.9,0.9c0.2,0.2,0.3,0.4,0.5,0.6c0,0,0,0,0,0
		c-0.3,1.5-1.1,2.5-2.6,3c-1,0.3-1.8,0.9-1.9,2c0,0,0,0,0,0c-0.6,0.2-1.2,0.7-1.7,0.6c-2.1-0.4-2.3,0.8-2.3,2.4
		C41.4,78.4,32.3,85,23.2,91.5c-0.6,0.4-1.3,0.8-2.1,0.7c-0.4-5-0.8-10.1-2-15c0.3-2.7,1.5-5.3,0.8-8.1c0.1-0.5,0.1-1,0.2-1.5
		c0.5,0.6,0.4,1.4,0.4,2.1c0.3,3.4,0.5,6.7,0.8,10.1c0.1,1.5,0.7,2.2,2.1,0.9C24.2,80.1,25.3,80.2,25.8,79.4z"/>
	<path style="fill:#0E0E56;" d="M29.2,53.1c-1.7-1-3.5-1.4-5.3-2c-0.2-0.2-0.5-0.3-0.7-0.5c-0.7-0.3-1.3-0.5-2-0.8
		c1-2.7,2.4-3.3,4.5-1.4c2.3,2,5.2,1.8,7.8,2.9c1.9,0.8,4,1.9,5.8,2.3c4.3,1,7.4,4.7,12.1,4.9c-0.3,1.1-1.3,1.1-1.8,1.7
		c-5.1-1.8-10.1-3.6-15.2-5.4c-0.7-0.2-1.4-0.4-2.1-0.6C31.4,53.3,30.2,53.3,29.2,53.1z"/>
	<path style="fill:#0E0E56;" d="M19.2,77.3c1.2,4.9,1.6,10,2,15c-0.3,0.9-0.9,1.1-1.7,0.7c-2-1-3.7-3.8-3.2-6.1c0.7-3,2.1-5.8,2.2-9
		C18.4,77.6,18.9,77.4,19.2,77.3z"/>
	<path style="fill:#18353C;" d="M23.1,50.6c-1.3,0.6-1,1.7-0.9,2.8c0.1,1.5,0.2,2.9,0.2,4.4c0,0.6,0,1.6-0.9,1.4
		c-2.2-0.6-1.7,0.9-1.8,2c-0.2-0.5-0.5-1-0.4-1.4c0.7-3.3,0.5-6.9,1.9-10.1C21.8,50.1,22.4,50.3,23.1,50.6z"/>
	<path style="fill:#0E0E56;" d="M20.1,66c0,0.6,0,1.1,0,1.7c-0.1,0.5-0.1,1-0.2,1.5c-0.4,0.3-0.7,0.6-0.9,1.2
		c-0.1,0.5,0.3,1.6-0.8,1.4c-0.7-0.1-1.2-0.9-1.2-1.7c0-2.3,0-4.6,0-6.9C19.5,62.8,18.7,65.5,20.1,66z"/>
	<path style="fill:#0E0E56;" d="M54.1,68.3c0.1-1.2,0.9-1.7,1.9-2c1.5-0.5,2.4-1.4,2.6-3c1.4,0.6,1.7,1.3,0.5,2.5
		C57.7,67.2,55.9,67.6,54.1,68.3z"/>
	<path style="fill:#0E0E56;" d="M50.1,71.3c0-1.5,0.2-2.7,2.3-2.4c0.5,0.1,1.2-0.4,1.7-0.6c0.9,1.9-0.8,2.3-1.9,2.8
		C51.7,71.4,50.8,71.3,50.1,71.3z"/>
	<path style="fill:#0E0E56;" d="M58.6,63.3c-0.2-0.2-0.3-0.4-0.5-0.6C58.3,62.9,58.5,63.1,58.6,63.3z"/>
	<path style="fill:#0E0E56;" d="M110.3,68.7c-0.1,1.8-0.2,3.7-0.3,5.5c-0.4-3-1.3-6.1,0-9.2C110,66.3,110.1,67.5,110.3,68.7z"/>
	<path style="fill:#18353C;" d="M115.6,74.7c0.7-0.8,1.6-0.4,2.4-0.3C117.3,75,116.4,74.8,115.6,74.7z"/>
</g>
</svg>
